# xmcd
#
# Track frame offsets: 
#        150
#        140875
#        236633
#
# Disc length: 4076 seconds
#
# Revision: 1
# Processed by: cddbd v1.5.2PL0 Copyright (c) Steve Scherf et al.
# Submitted via: ExactAudioCopy v0.95a4
#
DISCID=280fea03
DTITLE=Equus - Eutheria
DYEAR=2007
DGENRE=
TTITLE0=Hyracotherm
TTITLE1=Orrorin
TTITLE2=Epona
EXTD=
EXTT0=
EXTT1=
EXTT2=
PLAYORDER=
